<svg id="Logo" xmlns="http://www.w3.org/2000/svg" viewBox="0 0 570 194"><defs><style>.cls-1{fill:#e3b35f;}.cls-2{fill:#fff;}.cls-3{fill:#7a7a7a;}.cls-4{fill:#e0e0e0;}.cls-5{fill:#aaf97b;}</style></defs><path class="cls-1" d="M0,184s-1.47-14.74,17.25-20.79S48,141,86,140.46c6.84,10,11.12,17.46,53.91,20.43s41.91-20.43,79.79-20.43,43.59,2.38,76.68,11.22,70.54,15.52,102-1.2,86.53-14.44,114.42-3.37C529.34,153.67,570,177,570,177v17H0Z"/><path class="cls-2" d="M34.56,96.73c3.92-3,6.61-6.32,10.65-8.75,1.58-1.81,4.22-2.38,4.94-4.19,2-1.22,2.43-1.17,4.06-2.28a1.86,1.86,0,0,0,2-.64c.85,0,1,.26,1.78-.12,2.57.25,3.15,3.65,4.69,4.31,1,2.2,3,4.85,3.93,7a25.62,25.62,0,0,1,2.67,3.8c2.17,2.09,4.24,4.53,4.43,7.48-.61,1.24-1.29,3.25-2.66,3.68a36.18,36.18,0,0,0-10.65,8.5c-2.72,3.36-1.8,7.78.44,10.65,1.29,1.39,1.16,3.42,2.6,4.19,1.4,3.36,4.36,6,5.84,9.13,1.69,2.49,3,2.89,3.29,5.2.38.52.51,1.31,1,1.77,1.94,4,1,8.46-.76,12.31-2.33,3.29-4.3,6.81-6.34,9.63-1.49,1-2,2.76-3.18,3.68a17.36,17.36,0,0,1-2.28,2c-1,.89-1.12,1.89-2.41,2-.67,1.56-2.69,3-3.42,3.81a21.42,21.42,0,0,1-4.57,4,7,7,0,0,1-3.93,0c-5-4-7.88-9.42-12.56-13.31-1.2-1.89-2-2-2.66-3.68-1.48-1.9-1.61-2-2-3.93a9.29,9.29,0,0,1,1.27-4.31,15.69,15.69,0,0,0,6-5.08c1-.66,2.34-1.42,2.54-2.66,6.5-5.59,3.07-15.17-1.4-20.67a11.08,11.08,0,0,1-2.41-2.67c-1-.86-1.68-2.28-2.28-2.66-3.39-4.29-4.2-8.4-4.82-13.44-.74-2.62.68-5.43,1.14-7.74,1.53-2.91,2.66-5,5.08-6.85Z"/><path class="cls-2" d="M148.45,110.3c-2,1.1-2.49.21-4.32.51a26.77,26.77,0,0,1-7.48,0c-9.43,1.63-19.1,5.6-24,13.82-5.74,11.2,4.87,22.46,15.09,24.73a74.43,74.43,0,0,0,9.89,2.47c3.51,1,9.22-1.19,11.17,2.35,1.07,5.93,0,12.49.12,18.39.51,2.35.21,5.43-1.39,7.1a33.42,33.42,0,0,1-11.92,1.78c-5.23.89-10.77-1.32-15.73-2-3.41-1.36-5.31-1.23-8.24-2.79-4.14-1.75-7.06-3.26-10.53-4.82-1.35-1.85-4.67-3.7-6.22-4.76a45,45,0,0,1-7.73-8.81c-1.22-1-2.22-3.19-2.79-3.93a8,8,0,0,0-1.14-1.65c-3-7.66-5.23-15.8-3-23.46,1-5,1.65-11,4.31-15,1.31-1.71,1.7-4,3-5.07.26-1,1.67-2.46,1.77-3.43a4.1,4.1,0,0,1,1.15-1c1.79-3,4.56-4.49,6.59-6.72.92-.92,2.76-3.11,3.42-3.43,2.86-1.92,5.32-3.91,8.63-4.56,1.37-1.66,3.79-2,5.33-2.29,2.08-.8,3.15-1.44,4.56-1.39,7.08-2.7,14.43-2.1,21.37-2.41,2.57.61,4.34,1.51,6.41,1.14,2.06,1,2.16,2.7,2.15,4.69.55,3.15.15,7.61-.12,10.34S149.14,107,148.45,110.3Z"/><path class="cls-2" d="M456.26,119.81c-.21,13-.05,26.26.82,39.06.62,4.44.83,8.5,1.21,12.94.78,2.83,1.37,6.33.12,8.62-4.72,1.45-9.79-.77-14.58.51-5.35-.53-11.22,1.52-16.36.89-4.23-.66-2.44-3.71-2.54-6.34.36-3.83.58-8.11,1.27-11.54.52-7.28.11-14.43.63-21.44-.78-9.87,2.11-21.44-1.52-30.44a97.64,97.64,0,0,0-21.3,3.05c-7.24-.79-2.2-8.81-2-13.07.28-2.71,1.23-5.22,1.52-7.73-.06-1.83.55-4.06.51-5.84.61-1,.78-1,.88-1.39,3.39-3.21,10.68-1.18,14.72-.89,4.06,0,9.11-.23,12.93.26,3.72-.24,7.77.31,11.29-.13,4.87-1.07,9.41-.8,13.95-1a20.49,20.49,0,0,1,4.19,0c6.4-1.14,12.86-.78,18.76-1.9,4.93,3,.94,9.89.89,14.21-1.41,4.95-1.12,9.55-2.91,14.07.22,1.07-.6,1.25-.89,2.16-1.94,1.81-4.25-.12-6.15-.25-3-.7-6.18-.31-8.94-1C455.15,111.77,457.57,114.35,456.26,119.81Z"/><path class="cls-2" d="M501.73,96.73c3.93-3,6.61-6.32,10.65-8.75,1.59-1.81,4.22-2.38,5-4.19,2-1.22,2.43-1.17,4.06-2.28a1.86,1.86,0,0,0,2-.64c.84,0,1,.26,1.77-.12,2.58.25,3.16,3.65,4.69,4.31,1,2.2,3,4.85,3.94,7a25.5,25.5,0,0,1,2.66,3.8c2.17,2.09,4.25,4.53,4.44,7.48-.61,1.24-1.29,3.24-2.66,3.68a36.23,36.23,0,0,0-10.66,8.5c-2.72,3.36-1.79,7.78.45,10.65,1.28,1.39,1.15,3.42,2.6,4.19,1.4,3.36,4.35,6,5.83,9.13,1.7,2.49,3,2.89,3.3,5.2.37.52.5,1.32,1,1.77,1.94,4,1,8.46-.76,12.31-2.33,3.29-4.29,6.81-6.34,9.63-1.48,1-2,2.76-3.17,3.68a17.36,17.36,0,0,1-2.28,2c-1,.89-1.12,1.89-2.41,2-.67,1.56-2.7,3-3.43,3.81a21.62,21.62,0,0,1-4.56,4,7,7,0,0,1-3.94,0c-5-4-7.88-9.42-12.55-13.31-1.21-1.89-2-2-2.66-3.68-1.48-1.9-1.62-2-2-3.93a9.06,9.06,0,0,1,1.27-4.31,15.77,15.77,0,0,0,6-5.08c1-.66,2.33-1.42,2.53-2.66,6.51-5.59,3.07-15.17-1.39-20.67a11.08,11.08,0,0,1-2.41-2.67c-1.06-.86-1.68-2.28-2.29-2.66-3.38-4.29-4.19-8.4-4.81-13.44-.75-2.62.67-5.43,1.14-7.74,1.52-2.91,2.66-5,5.07-6.85Z"/><circle cx="213.33" cy="138.02" r="45.26"/><circle class="cls-3" cx="213.33" cy="138.02" r="28.62"/><circle class="cls-4" cx="213.33" cy="138.02" r="18.6"/><path class="cls-5" d="M270.57,138H156.08a57.25,57.25,0,0,1,114.49,0Z"/><circle cx="338.47" cy="138.02" r="45.26"/><circle class="cls-3" cx="338.47" cy="138.02" r="28.62"/><circle class="cls-4" cx="338.47" cy="138.02" r="18.6"/><path class="cls-5" d="M395.71,138H281.22a57.25,57.25,0,0,1,114.49,0Z"/></svg>